<svg xmlns="http://www.w3.org/2000/svg" viewBox="0 0 800 400" width="100%" height="100%">
    <!-- Definitions for arrows and gradients -->
    <defs>
        <marker id="arrow" viewBox="0 0 10 10" refX="5" refY="5" markerWidth="6" markerHeight="6" orient="auto-start-reverse">
            <path d="M 0 0 L 10 5 L 0 10 z" fill="#333" />
        </marker>
        <linearGradient id="spatial" x1="0%" y1="0%" x2="100%" y2="100%">
            <stop offset="0%" stop-color="#4facfe" />
            <stop offset="100%" stop-color="#00f2fe" />
        </linearGradient>
        <linearGradient id="temporal" x1="0%" y1="0%" x2="100%" y2="100%">
            <stop offset="0%" stop-color="#f093fb" />
            <stop offset="100%" stop-color="#f5576c" />
        </linearGradient>
    </defs>

    <!-- Video Input -->
    <rect x="50" y="150" width="80" height="100" rx="10" fill="#e0e0e0" stroke="#333" stroke-width="2"/>
    <text x="90" y="200" font-family="Arial" font-size="14" font-weight="bold" text-anchor="middle">Input Video</text>
    <text x="90" y="220" font-family="Arial" font-size="12" text-anchor="middle">(T, C, H, W)</text>

    <!-- Arrow 1 -->
    <line x1="130" y1="200" x2="180" y2="200" stroke="#333" stroke-width="3" marker-end="url(#arrow)" />

    <!-- Spatial Encoder -->
    <rect x="190" y="120" width="120" height="160" rx="15" fill="url(#spatial)" stroke="#333" stroke-width="2"/>
    <text x="250" y="190" font-family="Arial" font-size="16" font-weight="bold" text-anchor="middle" fill="#fff">Swin-V2</text>
    <text x="250" y="210" font-family="Arial" font-size="12" text-anchor="middle" fill="#fff">Spatial Encoder</text>

    <!-- Arrow 2 -->
    <line x1="310" y1="200" x2="360" y2="200" stroke="#333" stroke-width="3" marker-end="url(#arrow)" />

    <!-- Temporal Encoder -->
    <rect x="370" y="120" width="120" height="160" rx="15" fill="url(#temporal)" stroke="#333" stroke-width="2"/>
    <text x="430" y="190" font-family="Arial" font-size="16" font-weight="bold" text-anchor="middle" fill="#fff">TimeSformer</text>
    <text x="430" y="210" font-family="Arial" font-size="12" text-anchor="middle" fill="#fff">Temporal Engine</text>

    <!-- Arrow 3 -->
    <line x1="490" y1="200" x2="540" y2="200" stroke="#333" stroke-width="3" marker-end="url(#arrow)" />

    <!-- Feature Fusion & Heads -->
    <rect x="550" y="100" width="100" height="60" rx="10" fill="#4caf50" stroke="#333" stroke-width="2"/>
    <text x="600" y="135" font-family="Arial" font-size="14" font-weight="bold" text-anchor="middle" fill="#fff">HR Head</text>

    <rect x="550" y="170" width="100" height="60" rx="10" fill="#ff9800" stroke="#333" stroke-width="2"/>
    <text x="600" y="205" font-family="Arial" font-size="14" font-weight="bold" text-anchor="middle" fill="#fff">RR Head</text>

    <rect x="550" y="240" width="100" height="60" rx="10" fill="#9c27b0" stroke="#333" stroke-width="2"/>
    <text x="600" y="275" font-family="Arial" font-size="14" font-weight="bold" text-anchor="middle" fill="#fff">BVP Head</text>

    <path d="M 490 200 L 520 200 L 520 130 L 540 130" fill="none" stroke="#333" stroke-width="3" marker-end="url(#arrow)"/>
    <path d="M 490 200 L 520 200 L 520 270 L 540 270" fill="none" stroke="#333" stroke-width="3" marker-end="url(#arrow)"/>

</svg>